<html>
<head>
<meta charset="UTF-8">
<meta name="viewport" content="width=device-width, initial-scale=1.0"/>

<style>
.comment
{
    padding-left: 20px;
    margin-top: 4px;
    margin-right: 4px;
    margin-bottom: 4px;
    border: 2px #000 solid;
}
.submission
{
    border: 4px #00f solid;
    padding-left: 20px;
}
.hidden
{
    display: none;
}
</style>
</head>
<body><div class="submission" id="t3_5yzcox">
    <p class="userinfo">
        <a href="https://www.reddit.com/u/jodorowsthesky">jodorowsthesky</a>
        <span class="score"> | 15 points</span>
        <span class="timestamp"> | Mar 12 2017 16:07:30</span>
    </p>
    <strong>[MOVIE] Waxwork (1988) [1080p][x264][7.64GB]</strong>
    <p><p>.nz/#!Lkc1RRbK!5xJMcxs0w1WTkQjiHZR7xTcqt4uEoan1FY8o1-bnD1g  </p>
<pre><code>Format                                   : Matroska
Format version                           : Version 4 / Version 2
File size                                : 7.64 GiB
Duration                                 : 1 h 37 min
Overall bit rate mode                    : Variable
Overall bit rate                         : 11.3 Mb/s
Encoded date                             : UTC 2016-12-15 13:58:05
Writing application                      : mkvmerge v9.6.0 ('Slave To Your Mind') 64bit
Writing library                          : libebml v1.3.4 + libmatroska v1.4.5

Video
ID                                       : 1
Format                                   : AVC
Format/Info                              : Advanced Video Codec
Format profile                           : High@L4.1
Format settings, CABAC                   : Yes
Format settings, ReFrames                : 4 frames
Codec ID                                 : V_MPEG4/ISO/AVC
Duration                                 : 1 h 37 min
Bit rate                                 : 10.6 Mb/s
Width                                    : 1 920 pixels
Height                                   : 1 040 pixels
Display aspect ratio                     : 1.85:1
Frame rate mode                          : Constant
Frame rate                               : 23.976 (24000/1001) FPS
Color space                              : YUV
Chroma subsampling                       : 4:2:0
Bit depth                                : 8 bits
Scan type                                : Progressive
Bits/(Pixel*Frame)                       : 0.221
Stream size                              : 7.18 GiB (94%)
Writing library                          : x264 core 148 r2744 b97ae06
Encoding settings                        : cabac=1 / ref=4 / deblock=1:-3:-3 / analyse=0x3:0x113 / me=umh / subme=8 / psy=1 / psy_rd=1.00:0.25 / mixed_ref=1 / me_range=24 / chroma_me=1 / trellis=1 / 8x8dct=1 / cqm=0 / deadzone=21,11 / fast_pskip=1 / chroma_qp_offset=-4 / threads=24 / lookahead_threads=4 / sliced_threads=0 / nr=0 / decimate=1 / interlaced=0 / bluray_compat=0 / constrained_intra=0 / bframes=3 / b_pyramid=2 / b_adapt=1 / b_bias=0 / direct=3 / weightb=1 / open_gop=0 / weightp=2 / keyint=240 / keyint_min=24 / scenecut=40 / intra_refresh=0 / rc_lookahead=50 / rc=2pass / mbtree=1 / bitrate=10589 / ratetol=1.0 / qcomp=0.60 / qpmin=0 / qpmax=69 / qpstep=4 / cplxblur=20.0 / qblur=0.5 / ip_ratio=1.40 / aq=1:0.75
Default                                  : Yes
Forced                                   : No

Audio
ID                                       : 2
Format                                   : FLAC
Format/Info                              : Free Lossless Audio Codec
Codec ID                                 : A_FLAC
Duration                                 : 1 h 37 min
Bit rate mode                            : Variable
Bit rate                                 : 672 kb/s
Channel(s)                               : 2 channels
Channel positions                        : Front: L R
Sampling rate                            : 48.0 kHz
Frame rate                               : 11.719 FPS (4096 spf)
Bit depth                                : 16 bits
Stream size                              : 467 MiB (6%)
Writing library                          : libFLAC 1.2.1 (UTC 2007-09-17)
Language                                 : English
Default                                  : Yes
Forced                                   : No
</code></pre></p>
    <p class="toolbar">
        <a href="https://www.reddit.com/r/megalinks/comments/5yzcox">permalink</a>
    </p>
</div>
<div class="comment" id="t1_deu18fw">
    <p class="userinfo">
        <a
        class="toggle_hide_button"
        href="javascript:void(0)"
        onclick="toggle_collapse(this.parentElement.parentElement)">[-]
        </a>
        <a href="https://www.reddit.com/u/SubZorro">SubZorro</a>
        <span class="score"> | 1 points</span>
        <span class="timestamp"> | Mar 12 2017 16:11:05</span>
    </p>
    <div class="collapsible">
        <h5>Subtitles for this movie:</h5>
<hr>
<blockquote>
<ul>
<li>
<p><strong>Waxwork.1988.1080p.BluRay.x264.DTS-FGT</strong> - <code>1 CD</code> - <a href="http://dl.opensubtitles.org/en/download/vrf-d7693b23/sub/6780802">Download Subtitle</a></p>
</li>
<li>
<p><strong>Waxwork - Eng - (1988) [Unrated]</strong> - <code>1 CD</code> - <a href="http://dl.opensubtitles.org/en/download/vrf-0324c6d6/sub/6684914">Download Subtitle</a></p>
</li>
</ul>
</blockquote>
<hr>
<p>^This ^list ^of ^subtitles ^are ^taken ^from <a href="http://www.opensubtitles.org">^opensubtitles.org</a> ^| ^For ^feedback ^or ^suggestions ^contact <a href="http://www.reddit.com/message/compose/?to=indigo6alpha">^/u/indigo6alpha</a></p>
        <p class="toolbar">
            <a href="https://www.reddit.com/r/megalinks/comments/5yzcox/_/deu18fw">permalink</a>
        </p>
        
    </div>
</div>

<div class="comment" id="t1_deu18h2">
    <p class="userinfo">
        <a
        class="toggle_hide_button"
        href="javascript:void(0)"
        onclick="toggle_collapse(this.parentElement.parentElement)">[-]
        </a>
        <a href="https://www.reddit.com/u/boltrop">boltrop</a>
        <span class="score"> | 1 points</span>
        <span class="timestamp"> | Mar 12 2017 16:11:06</span>
    </p>
    <div class="collapsible">
        <h3><a href="https://images-na.ssl-images-amazon.com/images/M/MV5BNGFmYmRmOTgtYjJiZi00MjhkLTk1MGEtZWIwNjQxODQxNmYyXkEyXkFqcGdeQXVyMTQxNzMzNDI@._V1_.jpg">Waxwork</a> (1988)</h3>
<p><strong>Genre</strong>: Comedy, Horror</p>
<p><strong>Rating</strong>:  6.2 (8351 votes)</p>
<p><strong>Certification</strong>: R</p>
<p><strong>Runtime</strong>: 95 min</p>
<hr>
<blockquote>
<p><strong>Director(s)</strong>: <a href="https://www.imdb.com/name/nm0382776/">Anthony Hickox</a></p>
<p><strong>Writer(s)</strong>: <a href="https://www.imdb.com/name/nm0382776/">Anthony Hickox</a></p>
<p><strong>Cast</strong>: <a href="https://www.imdb.com/name/nm0002090/">Zach Galligan</a>, <a href="https://www.imdb.com/name/nm0286033/">Deborah Foreman</a>, <a href="https://www.imdb.com/name/nm0060257/">Jennifer Bassey</a>, <a href="https://www.imdb.com/name/nm0048589/">Joe Baker</a></p>
<p><strong>Plot</strong>: A wax museum owner uses his horror exhibits to unleash evil on the world.</p>
</blockquote>
<hr>
<p>^This ^summary ^is ^taken ^from <a href="https://www.imdb.com/title/tt0096426/">^imdb.com</a> ^| ^For ^feedback ^or ^suggestions ^contact <a href="http://www.reddit.com/message/compose/?to=indigo6alpha">^/u/indigo6alpha</a></p>
        <p class="toolbar">
            <a href="https://www.reddit.com/r/megalinks/comments/5yzcox/_/deu18h2">permalink</a>
        </p>
        
    </div>
</div>

<div class="comment" id="t1_deuun35">
    <p class="userinfo">
        <a
        class="toggle_hide_button"
        href="javascript:void(0)"
        onclick="toggle_collapse(this.parentElement.parentElement)">[-]
        </a>
        <a href="https://www.reddit.com/u/Shanks01">Shanks01</a>
        <span class="score"> | 1 points</span>
        <span class="timestamp"> | Mar 13 2017 03:28:44</span>
    </p>
    <div class="collapsible">
        <p>Muchas gracias.</p>
        <p class="toolbar">
            <a href="https://www.reddit.com/r/megalinks/comments/5yzcox/_/deuun35">permalink</a>
        </p>
        
    </div>
</div>

<div class="comment" id="t1_deu5mvq">
    <p class="userinfo">
        <a
        class="toggle_hide_button"
        href="javascript:void(0)"
        onclick="toggle_collapse(this.parentElement.parentElement)">[-]
        </a>
        <a href="https://www.reddit.com/u/FugiMuffi">FugiMuffi</a>
        <span class="score"> | 0 points</span>
        <span class="timestamp"> | Mar 12 2017 17:52:23</span>
    </p>
    <div class="collapsible">
        <p>Formatting looks shit on mobile, but thank you for sharing</p>
        <p class="toolbar">
            <a href="https://www.reddit.com/r/megalinks/comments/5yzcox/_/deu5mvq">permalink</a>
        </p>
        
    </div>
</div>
</body>

<script>
function toggle_collapse(comment_div)
{
    var button = comment_div.getElementsByClassName("toggle_hide_button")[0];
    var collapsible = comment_div.getElementsByClassName("collapsible")[0];
    if (collapsible.classList.contains("hidden"))
    {
        collapsible.classList.remove("hidden");
        button.innerText = "[-]";
    }
    else
    {
        collapsible.classList.add("hidden");
        button.innerText = "[+]";
    }
}
</script>
</html>
